<svg width="28" height="35" viewBox="0 0 28 35" fill="none" xmlns="http://www.w3.org/2000/svg">
<path fill-rule="evenodd" clip-rule="evenodd" d="M14.0029 0.417511C16.7272 0.417511 18.966 1.33856 20.4876 2.22072C22.5475 3.41404 23.3379 5.6591 23.3379 7.66301V10.3235C23.9556 10.7171 24.5312 11.1014 25.0415 11.4561L25.9206 12.0769L26.0761 12.1889C26.5305 12.5167 26.978 12.8548 27.4188 13.2033C28.0816 13.7323 28.1967 14.728 27.6646 15.3924C27.4069 15.7143 27.0318 15.9207 26.6219 15.9662C26.212 16.0117 25.8008 15.8926 25.4787 15.6351C24.7825 15.0869 24.0686 14.5618 23.3379 14.0606V24.6667C23.3379 26.488 22.6144 28.2348 21.3265 29.5227C20.0386 30.8106 18.2918 31.5341 16.4705 31.5341H11.5354C9.71402 31.5341 7.96726 30.8106 6.67937 29.5227C5.39148 28.2348 4.66795 26.488 4.66795 24.6667V14.0606C3.94138 14.5647 3.22103 15.0828 2.52868 15.6351C2.20642 15.893 1.7949 16.0123 1.38467 15.9668C0.974433 15.9212 0.599082 15.7146 0.341188 15.3924C0.0832931 15.0701 -0.0360196 14.6586 0.00949718 14.2483C0.055014 13.8381 0.261632 13.4628 0.583897 13.2049C1.02575 12.8574 1.47435 12.5187 1.92969 12.1889L2.59247 11.7144C3.18991 11.2943 3.89626 10.8151 4.66795 10.325V7.66301C4.66795 5.65754 5.45831 3.41404 7.51823 2.22072C9.03983 1.33856 11.2802 0.417511 14.0029 0.417511ZM20.2262 15.0641C19.2787 16.0116 18.6704 17.1878 18.6704 18.5538V23.7549C18.6704 24.5802 18.3426 25.3717 17.759 25.9552C17.1755 26.5388 16.384 26.8666 15.5587 26.8666H12.4471C11.6218 26.8666 10.8304 26.5388 10.2468 25.9552C9.66327 25.3717 9.33543 24.5802 9.33543 23.7549V18.5538C9.33543 17.1878 8.7271 16.0116 7.7796 15.0641V24.6667C7.7796 25.1599 7.87675 25.6483 8.0655 26.1039C8.25424 26.5596 8.53089 26.9736 8.87965 27.3224C9.2284 27.6711 9.64243 27.9478 10.0981 28.1365C10.5538 28.3253 11.0422 28.4224 11.5354 28.4224H16.4705C16.9637 28.4224 17.4521 28.3253 17.9077 28.1365C18.3634 27.9478 18.7774 27.6711 19.1262 27.3224C19.4749 26.9736 19.7516 26.5596 19.9403 26.1039C20.1291 25.6483 20.2262 25.1599 20.2262 24.6667V15.0641ZM14.0029 3.52917C11.985 3.52917 10.2845 4.21373 9.07872 4.91386C8.28214 5.37283 7.7796 6.36544 7.7796 7.66145V8.53271C8.34126 8.24489 8.9138 7.97417 9.48479 7.73302C10.9442 7.12002 12.5311 6.64083 14.0029 6.64083C15.4747 6.64083 17.0617 7.12002 18.521 7.73457C19.092 7.97573 19.6646 8.24644 20.2262 8.53271V7.66145C20.2262 6.367 19.7237 5.37438 18.9271 4.9123C17.7213 4.21373 16.0208 3.52917 14.0029 3.52917Z" fill="white"/>
</svg>
