<svg width="32" height="33" viewBox="0 0 32 33" fill="none" xmlns="http://www.w3.org/2000/svg">
<g clip-path="url(#clip0_213_3883)">
<path d="M22.667 13.7203C24.8761 13.7203 26.667 11.9294 26.667 9.72027C26.667 7.51113 24.8761 5.72027 22.667 5.72027C20.4579 5.72027 18.667 7.51113 18.667 9.72027C18.667 11.9294 20.4579 13.7203 22.667 13.7203Z" stroke="white" stroke-width="3" stroke-linecap="round" stroke-linejoin="round"/>
<path d="M9.3335 27.0536C11.5426 27.0536 13.3335 25.2627 13.3335 23.0536C13.3335 20.8445 11.5426 19.0536 9.3335 19.0536C7.12436 19.0536 5.3335 20.8445 5.3335 23.0536C5.3335 25.2627 7.12436 27.0536 9.3335 27.0536Z" stroke="white" stroke-width="3" stroke-linecap="round" stroke-linejoin="round"/>
<path d="M18.6668 19.0536H26.6668V25.7203C26.6668 26.0739 26.5264 26.413 26.2763 26.6631C26.0263 26.9131 25.6871 27.0536 25.3335 27.0536H20.0002C19.6465 27.0536 19.3074 26.9131 19.0574 26.6631C18.8073 26.413 18.6668 26.0739 18.6668 25.7203V19.0536ZM5.3335 5.72027H13.3335V12.3869C13.3335 12.7406 13.193 13.0797 12.943 13.3297C12.6929 13.5798 12.3538 13.7203 12.0002 13.7203H6.66683C6.31321 13.7203 5.97407 13.5798 5.72402 13.3297C5.47397 13.0797 5.3335 12.7406 5.3335 12.3869V5.72027Z" stroke="white" stroke-width="3" stroke-linecap="round" stroke-linejoin="round"/>
</g>
<defs>
<clipPath id="clip0_213_3883">
<rect width="32" height="32" fill="white" transform="translate(0 0.386932)"/>
</clipPath>
</defs>
</svg>
