<svg width="26" height="26" viewBox="0 0 26 26" fill="none" xmlns="http://www.w3.org/2000/svg">
<path d="M20.8125 6.22913L20.167 16.6719C20.002 19.34 19.9196 20.674 19.2508 21.6332C18.9201 22.1074 18.4945 22.5076 18.0007 22.8083C17.0022 23.4166 15.6656 23.4166 12.9924 23.4166C10.3157 23.4166 8.9774 23.4166 7.97818 22.8071C7.48417 22.5059 7.05833 22.105 6.72779 21.63C6.05925 20.6693 5.97859 19.3334 5.8173 16.6616L5.1875 6.22913" stroke="#FEFEFE" stroke-width="1.5625" stroke-linecap="round"/>
<path d="M3.625 6.22921H22.375M17.2247 6.22921L16.5136 4.76226C16.0412 3.78781 15.805 3.30058 15.3976 2.99672C15.3073 2.92931 15.2116 2.86935 15.1115 2.81744C14.6603 2.58337 14.1189 2.58337 13.0359 2.58337C11.9258 2.58337 11.3708 2.58337 10.9122 2.82725C10.8105 2.8813 10.7135 2.94369 10.6222 3.01376C10.21 3.32994 9.97982 3.83499 9.51939 4.8451L8.88846 6.22921" stroke="#FEFEFE" stroke-width="1.5625" stroke-linecap="round"/>
<path d="M10.396 17.6875V11.4375" stroke="#FEFEFE" stroke-width="1.5625" stroke-linecap="round"/>
<path d="M15.604 17.6875V11.4375" stroke="#FEFEFE" stroke-width="1.5625" stroke-linecap="round"/>
</svg>
