<svg width="32" height="33" viewBox="0 0 32 33" fill="none" xmlns="http://www.w3.org/2000/svg">
<path d="M30.8685 11.3485C32.7826 9.43453 31.9098 7.19901 30.8685 6.11187L26.2748 1.51833C24.3454 -0.395649 22.125 0.477124 21.0379 1.51833L18.4347 4.13665H14.4687C11.5593 4.13665 9.87496 5.66783 9.01745 7.42869L2.21865 14.2271V20.3519L1.13145 21.4237C-0.782622 23.353 0.0901968 25.5732 1.13145 26.6603L5.72524 31.2539C6.55212 32.0807 7.44025 32.3869 8.28244 32.3869C9.36964 32.3869 10.365 31.851 10.9622 31.2539L15.0966 27.1044H20.5938C23.1969 27.1044 24.5138 25.4813 24.9885 23.8889C26.7188 23.4295 27.6682 22.1127 28.051 20.8265C30.4245 20.214 31.3126 17.9632 31.3126 16.3861V11.7926H30.4092L30.8685 11.3485ZM28.2501 16.3861C28.2501 17.0751 27.9592 17.9173 26.7188 17.9173H25.1876V19.4485C25.1876 20.1375 24.8966 20.9796 23.6563 20.9796H22.125V22.5108C22.125 23.1998 21.8341 24.042 20.5938 24.042H13.8409L8.81839 29.0643C8.34369 29.5083 8.06807 29.248 7.89963 29.0796L3.32116 24.5167C2.87709 24.042 3.13741 23.7664 3.30585 23.598L5.28117 21.6074V15.4827L8.34369 12.4203V14.8549C8.34369 16.7076 9.5687 19.4485 12.9375 19.4485C16.3063 19.4485 17.5313 16.7076 17.5313 14.8549H28.2501V16.3861ZM28.6942 9.17423L26.091 11.7926H14.4687V14.8549C14.4687 15.5439 14.1778 16.3861 12.9375 16.3861C11.6972 16.3861 11.4062 15.5439 11.4062 14.8549V10.2614C11.4062 9.55703 11.6665 7.19901 14.4687 7.19901H19.6903L23.1816 3.70792C23.6563 3.26387 23.9319 3.52417 24.1004 3.6926L28.6788 8.25552C29.1229 8.73019 28.8626 9.0058 28.6942 9.17423Z" fill="white"/>
</svg>
