<svg width="17" height="16" viewBox="0 0 17 16" fill="none" xmlns="http://www.w3.org/2000/svg">
<path d="M14.5 6.66657C14.5 11.3332 8.5 15.3332 8.5 15.3332C8.5 15.3332 2.5 11.3332 2.5 6.66657C2.5 5.07527 3.13214 3.54914 4.25736 2.42392C5.38258 1.29871 6.9087 0.666565 8.5 0.666565C10.0913 0.666565 11.6174 1.29871 12.7426 2.42392C13.8679 3.54914 14.5 5.07527 14.5 6.66657Z" stroke="#44536F" stroke-width="1.28" stroke-linecap="round" stroke-linejoin="round"/>
<path d="M8.5 8.66657C9.60457 8.66657 10.5 7.77114 10.5 6.66657C10.5 5.562 9.60457 4.66657 8.5 4.66657C7.39543 4.66657 6.5 5.562 6.5 6.66657C6.5 7.77114 7.39543 8.66657 8.5 8.66657Z" stroke="#44536F" stroke-width="1.28" stroke-linecap="round" stroke-linejoin="round"/>
</svg>
