<svg width="17" height="17" viewBox="0 0 17 17" fill="none" xmlns="http://www.w3.org/2000/svg">
<g clip-path="url(#clip0_380_314)">
<path d="M14.4995 7.1665C14.4995 11.8332 8.49951 15.8332 8.49951 15.8332C8.49951 15.8332 2.49951 11.8332 2.49951 7.1665C2.49951 5.57521 3.13165 4.04908 4.25687 2.92386C5.38209 1.79864 6.90821 1.1665 8.49951 1.1665C10.0908 1.1665 11.6169 1.79864 12.7422 2.92386C13.8674 4.04908 14.4995 5.57521 14.4995 7.1665Z" stroke="white" stroke-opacity="0.88" stroke-width="1.28" stroke-linecap="round" stroke-linejoin="round"/>
<path d="M8.49951 9.1665C9.60408 9.1665 10.4995 8.27107 10.4995 7.1665C10.4995 6.06193 9.60408 5.1665 8.49951 5.1665C7.39494 5.1665 6.49951 6.06193 6.49951 7.1665C6.49951 8.27107 7.39494 9.1665 8.49951 9.1665Z" stroke="white" stroke-opacity="0.88" stroke-width="1.28" stroke-linecap="round" stroke-linejoin="round"/>
</g>
<defs>
<clipPath id="clip0_380_314">
<rect width="16" height="16" fill="white" transform="translate(0.5 0.5)"/>
</clipPath>
</defs>
</svg>
