<svg width="116" height="40" viewBox="0 0 116 40" fill="none" xmlns="http://www.w3.org/2000/svg">
<path d="M25.5109 32.4459H9.88156C7.18486 32.4459 4.99951 30.251 4.99951 27.5426V11.8435C4.99951 9.13504 7.18486 6.94019 9.88156 6.94019H25.5127C28.2094 6.94019 30.3948 9.13504 30.3948 11.8435V27.5408C30.3948 30.2474 28.213 32.4441 25.5163 32.4459H25.5127H25.5109Z" fill="#FF3D00"/>
<path d="M17.2941 13.2721C16.6198 13.3007 15.9564 13.456 15.3422 13.731C14.7317 14.0042 14.1758 14.3827 13.702 14.8469C13.2245 15.3094 12.8509 15.8629 12.6049 16.4753C12.3479 17.1056 12.2367 17.784 12.2786 18.4607C12.3224 19.1196 12.4846 19.7641 12.7598 20.3676C13.0368 20.9693 13.4213 21.5175 13.8988 21.9835C14.3727 22.4495 14.9358 22.8209 15.5554 23.0762L21.637 25.4062C22.0215 25.5634 22.4535 25.5598 22.8344 25.3955C23.2116 25.2384 23.505 24.9367 23.649 24.5617C23.8039 24.1885 23.7984 23.769 23.6326 23.3994C23.4722 23.0208 23.1569 22.7262 22.7651 22.587L20.8661 21.8603C21.2087 21.6621 21.5149 21.4086 21.77 21.1086C21.9997 20.8354 22.1837 20.5283 22.3168 20.198C22.5774 19.557 22.7013 18.8696 22.6813 18.1786C22.6594 17.5234 22.5063 16.8806 22.2311 16.2842C21.9523 15.6897 21.5605 15.1522 21.0793 14.6987C20.58 14.2256 19.9877 13.8542 19.3389 13.6096C18.6901 13.3578 17.9921 13.2418 17.2941 13.2704V13.2721ZM19.4519 19.0428C19.4464 19.0571 19.4409 19.0696 19.4355 19.0839L19.4318 19.091C19.3298 19.3481 19.1785 19.5856 18.9835 19.7856C18.6044 20.1784 18.0795 20.4033 17.5273 20.4087C17.2376 20.4123 16.9496 20.3605 16.6817 20.2551C16.4175 20.1552 16.1769 20.0052 15.971 19.8123C15.7723 19.6284 15.6138 19.407 15.5044 19.1624C15.3951 18.9178 15.3367 18.6536 15.3349 18.3875C15.3313 18.1108 15.3823 17.8376 15.4862 17.5805C15.5864 17.3234 15.7377 17.0895 15.9327 16.8931C16.1204 16.7056 16.3427 16.5538 16.5888 16.4485C16.8403 16.3414 17.1118 16.2807 17.3852 16.2717C17.6695 16.2592 17.952 16.3075 18.2162 16.4092C19.2988 16.8038 19.851 17.984 19.45 19.0446L19.4519 19.0428Z" fill="white"/>
<path d="M35.9478 7.3335L35.9478 32.0535" stroke="white" stroke-width="0.7416"/>
<path d="M41.4995 8.06592H46.9148C50.5917 8.06592 52.3979 10.0925 52.3979 13.8085V16.0981C52.3979 19.8175 50.5917 21.8407 46.9148 21.8407H45.1765V31.3027H41.4995V8.06592ZM46.9148 18.526C48.0861 18.526 48.721 17.9932 48.721 16.3342V13.5792C48.721 11.9202 48.0861 11.3874 46.9148 11.3874H45.1765V18.526H46.9148Z" fill="white"/>
<path d="M54.3926 8.06506H58.0695V31.3052H54.3926V8.06506Z" fill="white"/>
<path d="M63.6457 8.06592H68.6264L72.4392 31.3061H68.7622L68.0934 26.6931V26.7606H63.914L63.2451 31.3095H59.833L63.6457 8.06929V8.06592ZM67.6554 23.6043L66.019 12.1158H65.951L64.3451 23.6043H67.6554Z" fill="white"/>
<path d="M73.4741 25.799V24.4704H76.9508V26.0654C76.9508 27.7245 77.6841 28.3213 78.8588 28.3213C80.0335 28.3213 80.7635 27.7245 80.7635 25.998C80.7635 24.0725 80.0301 22.8417 77.623 20.7544C74.547 18.0635 73.5454 16.1718 73.5454 13.518C73.5454 9.86609 75.4501 7.7417 79.0286 7.7417C82.6071 7.7417 84.3759 9.86609 84.3759 13.5855V14.5499H80.8993V13.3528C80.8993 11.6937 80.2305 11.0632 79.0625 11.0632C77.8946 11.0632 77.2224 11.6937 77.2224 13.2887C77.2224 14.9815 77.9931 16.2089 80.4002 18.303C83.4762 20.9905 84.4438 22.8518 84.4438 25.7383C84.4438 29.5251 82.5052 31.6495 78.8962 31.6495C75.2871 31.6495 73.4809 29.5251 73.4809 25.8058L73.4741 25.799Z" fill="white"/>
<path d="M85.9058 25.799V24.4704H89.3824V26.0654C89.3824 27.7245 90.1191 28.3213 91.2904 28.3213C92.4618 28.3213 93.1951 27.7245 93.1951 25.998C93.1951 24.0725 92.4618 22.8417 90.0546 20.7544C86.9786 18.0635 85.9771 16.1718 85.9771 13.518C85.9771 9.86609 87.8817 7.7417 91.4568 7.7417C95.0319 7.7417 96.8042 9.86609 96.8042 13.5855V14.5499H93.3309V13.3528C93.3309 11.6937 92.6621 11.0632 91.4908 11.0632C90.3194 11.0632 89.6506 11.6937 89.6506 13.2887C89.6506 14.9815 90.4213 16.2089 92.8284 18.303C95.9044 20.9905 96.8721 22.8518 96.8721 25.7383C96.8721 29.5251 94.9334 31.6495 91.3244 31.6495C87.7154 31.6495 85.9091 29.5251 85.9091 25.8058L85.9058 25.799Z" fill="white"/>
<path d="M101.71 8.06506H106.69L110.503 31.3052H106.826L106.157 26.6923V26.7597H101.978L101.309 31.3086H97.9004L101.71 8.06843V8.06506ZM105.719 23.6035L104.083 12.1149H104.015L102.409 23.6035H105.719Z" fill="white"/>
</svg>
