<svg width="25" height="27" viewBox="0 0 25 27" fill="none" xmlns="http://www.w3.org/2000/svg">
<rect y="0.5" width="25" height="26" rx="4" fill="#FF3D00"/>
<path d="M11.9026 7.14482C11.2501 7.17396 10.6083 7.33241 10.014 7.61289C9.42331 7.89155 8.88549 8.27767 8.42702 8.7512C7.96503 9.22292 7.60354 9.78752 7.36549 10.4122C7.11686 11.0551 7.00929 11.7472 7.04985 12.4375C7.09217 13.1096 7.24911 13.7671 7.51537 14.3827C7.7834 14.9964 8.15547 15.5556 8.61746 16.0309C9.07593 16.5063 9.62081 16.8851 10.2203 17.1456L16.1046 19.5224C16.4767 19.6826 16.8946 19.679 17.2631 19.5114C17.6281 19.3512 17.912 19.0434 18.0513 18.6609C18.2012 18.2802 18.1959 17.8522 18.0355 17.4752C17.8803 17.0891 17.5752 16.7886 17.1961 16.6465L15.3587 15.9053C15.6902 15.7031 15.9865 15.4445 16.2333 15.1385C16.4555 14.8598 16.6336 14.5466 16.7623 14.2096C17.0145 13.5558 17.1344 12.8546 17.115 12.1497C17.0939 11.4813 16.9457 10.8257 16.6795 10.2173C16.4097 9.61086 16.0306 9.06265 15.565 8.60004C15.0819 8.11739 14.5088 7.73856 13.881 7.48904C13.2533 7.23224 12.5779 7.11386 11.9026 7.143V7.14482ZM13.9904 13.0313C13.9851 13.0458 13.9798 13.0586 13.9745 13.0731L13.971 13.0804C13.8722 13.3427 13.7259 13.5849 13.5372 13.7889C13.1704 14.1896 12.6626 14.4191 12.1283 14.4245C11.8479 14.4282 11.5693 14.3754 11.3101 14.2679C11.0544 14.1659 10.8216 14.0129 10.6224 13.8162C10.4302 13.6286 10.2768 13.4028 10.171 13.1533C10.0652 12.9038 10.0087 12.6342 10.007 12.3628C10.0034 12.0805 10.0528 11.8019 10.1533 11.5396C10.2503 11.2773 10.3967 11.0388 10.5854 10.8384C10.767 10.6472 10.9821 10.4924 11.2202 10.3849C11.4635 10.2756 11.7262 10.2137 11.9907 10.2046C12.2658 10.1919 12.5391 10.241 12.7948 10.3448C13.8422 10.7473 14.3765 11.9512 13.9886 13.0331L13.9904 13.0313Z" fill="white"/>
</svg>
