<svg width="63" height="63" viewBox="0 0 63 63" fill="none" xmlns="http://www.w3.org/2000/svg">
<path d="M31.6105 55.1449C44.4353 55.1449 54.8319 44.7483 54.8319 31.9235C54.8319 19.0987 44.4353 8.70215 31.6105 8.70215C18.7857 8.70215 8.38916 19.0987 8.38916 31.9235C8.38916 44.7483 18.7857 55.1449 31.6105 55.1449Z" stroke="#FF3D00" stroke-width="2.58015" stroke-linecap="round" stroke-linejoin="round"/>
<path d="M31.6107 47.4045C33.2138 47.4045 34.5134 46.1049 34.5134 44.5018C34.5134 42.8987 33.2138 41.5991 31.6107 41.5991C30.0076 41.5991 28.708 42.8987 28.708 44.5018C28.708 46.1049 30.0076 47.4045 31.6107 47.4045Z" fill="#FF3D00"/>
<path d="M31.6108 35.7939V33.8588C32.9503 33.8588 34.2598 33.4616 35.3736 32.7174C36.4874 31.9731 37.3555 30.9154 37.8681 29.6778C38.3808 28.4402 38.5149 27.0784 38.2536 25.7646C37.9922 24.4508 37.3472 23.2439 36.4 22.2967C35.4527 21.3495 34.2459 20.7045 32.9321 20.4431C31.6183 20.1818 30.2565 20.3159 29.0189 20.8285C27.7813 21.3412 26.7235 22.2093 25.9793 23.3231C25.2351 24.4369 24.8379 25.7463 24.8379 27.0859" stroke="#FF3D00" stroke-width="2.58015" stroke-linecap="round" stroke-linejoin="round"/>
</svg>
