<svg width="24" height="25" viewBox="0 0 24 25" fill="none" xmlns="http://www.w3.org/2000/svg">
<mask id="mask0_213_3875" style="mask-type:alpha" maskUnits="userSpaceOnUse" x="0" y="0" width="24" height="25">
<rect y="0.386932" width="24" height="24" fill="#D9D9D9"/>
</mask>
<g mask="url(#mask0_213_3875)">
<path d="M11.9132 0.391068C11.8742 0.398106 11.8357 0.407649 11.7978 0.419638C11.5894 0.466272 11.4037 0.583613 11.2722 0.751663C11.1408 0.919713 11.0718 1.12807 11.0769 1.34124V2.26284H2.76923C2.03479 2.26284 1.33042 2.55413 0.811089 3.07264C0.291757 3.59114 0 4.29438 0 5.02765L0 17.0085C0 18.5347 1.24062 19.7733 2.76923 19.7733H11.0769V20.1189L6.05723 22.6247C5.83543 22.7317 5.66526 22.9222 5.58416 23.1544C5.50305 23.3866 5.51766 23.6415 5.62477 23.8629C5.73188 24.0844 5.92271 24.2543 6.15528 24.3352C6.38785 24.4162 6.64312 24.4016 6.86492 24.2947L11.0769 22.1925V22.5381C11.0769 22.7825 11.1742 23.0169 11.3473 23.1898C11.5204 23.3626 11.7552 23.4597 12 23.4597C12.2448 23.4597 12.4796 23.3626 12.6527 23.1898C12.8258 23.0169 12.9231 22.7825 12.9231 22.5381V22.1925L17.1351 24.2947C17.3569 24.4016 17.6121 24.4162 17.8447 24.3352C18.0773 24.2543 18.2681 24.0844 18.3752 23.8629C18.4823 23.6415 18.4969 23.3866 18.4158 23.1544C18.3347 22.9222 18.1646 22.7317 17.9428 22.6247L12.9231 20.1189V19.7733H21.2308C22.7594 19.7733 24 18.5347 24 17.0085V5.02765C24 4.29438 23.7082 3.59114 23.1889 3.07264C22.6696 2.55413 21.9652 2.26284 21.2308 2.26284H12.9231V1.34124C12.9277 1.21019 12.9043 1.07965 12.8544 0.958348C12.8045 0.837047 12.7293 0.727777 12.6337 0.637838C12.5381 0.547899 12.4244 0.479363 12.3001 0.436808C12.1759 0.394252 12.044 0.378659 11.9132 0.391068ZM1.84615 5.02765H22.1538V17.0085H1.84615V5.02765ZM19.2692 5.94925C19.0625 5.97145 18.8693 6.0627 18.7209 6.20822L15.6923 9.23292L13.5868 7.12891C13.4859 7.0256 13.3622 6.94738 13.2256 6.90052C13.0889 6.85366 12.9432 6.83947 12.8001 6.8591C12.6569 6.87874 12.5204 6.93164 12.4015 7.01356C12.2826 7.09547 12.1846 7.20411 12.1154 7.33074L9.37477 12.112L8.24954 9.28914C8.1949 9.14339 8.10418 9.01383 7.98584 8.91253C7.8675 8.81124 7.72539 8.74151 7.57278 8.70986C7.42016 8.67821 7.262 8.68566 7.11304 8.73151C6.96408 8.77737 6.82919 8.86014 6.72092 8.97211L3.95169 11.7369C3.86441 11.824 3.79517 11.9274 3.74791 12.0412C3.70065 12.155 3.67631 12.277 3.67626 12.4001C3.67622 12.5233 3.70048 12.6453 3.74766 12.7592C3.79484 12.873 3.86401 12.9764 3.95123 13.0636C4.03845 13.1507 4.142 13.2198 4.25598 13.267C4.36996 13.3142 4.49213 13.3385 4.61552 13.3386C4.73891 13.3386 4.8611 13.3144 4.97511 13.2673C5.08912 13.2202 5.19272 13.1511 5.28 13.064L7.03938 11.3075L8.36677 14.5902C8.42942 14.7548 8.538 14.8981 8.67967 15.003C8.82134 15.108 8.99016 15.1702 9.16614 15.1823C9.34213 15.1944 9.51791 15.156 9.67266 15.0714C9.82743 14.9869 9.95469 14.8599 10.0394 14.7054L13.1262 9.31955L15.0295 11.2208C15.1156 11.3097 15.2187 11.3804 15.3328 11.4287C15.4468 11.477 15.5694 11.5019 15.6932 11.5019C15.8171 11.5019 15.9397 11.477 16.0537 11.4287C16.1677 11.3804 16.2708 11.3097 16.3569 11.2208L20.0492 7.53441C20.195 7.39963 20.2934 7.22147 20.3297 7.02641C20.366 6.83136 20.3383 6.62982 20.2506 6.45175C20.163 6.27369 20.0202 6.1286 19.8434 6.03807C19.6666 5.94754 19.4652 5.91639 19.2692 5.94925Z" fill="white"/>
</g>
</svg>
