<svg width="30" height="31" viewBox="0 0 30 31" fill="none" xmlns="http://www.w3.org/2000/svg">
<path d="M20.3854 5.86686C19.6466 5.86686 19.2771 5.86686 18.9406 5.742C18.8939 5.72465 18.8479 5.70557 18.8025 5.68478C18.4763 5.53512 18.2151 5.27392 17.6926 4.75152C16.4903 3.54914 15.8891 2.94796 15.1494 2.89252C15.05 2.88507 14.95 2.88507 14.8506 2.89252C14.1109 2.94796 13.5096 3.54915 12.3073 4.75151C11.7849 5.27392 11.5237 5.53512 11.1975 5.68478C11.1522 5.70557 11.1061 5.72465 11.0593 5.742C10.7228 5.86686 10.3534 5.86686 9.61464 5.86686H9.47836C7.59348 5.86686 6.65104 5.86686 6.06549 6.45242C5.47993 7.03797 5.47993 7.98041 5.47993 9.8653V10.0016C5.47993 10.7403 5.47993 11.1097 5.35506 11.4463C5.33771 11.493 5.31864 11.5391 5.29785 11.5844C5.14819 11.9106 4.88699 12.1718 4.36458 12.6942C3.16221 13.8966 2.56103 14.4978 2.50559 15.2376C2.49814 15.3369 2.49814 15.4369 2.50559 15.5363C2.56103 16.2761 3.16221 16.8772 4.36458 18.0796C4.88699 18.6021 5.14819 18.8632 5.29785 19.1894C5.31864 19.2348 5.33771 19.2808 5.35506 19.3276C5.47993 19.6641 5.47993 20.0336 5.47993 20.7723V20.9086C5.47993 22.7934 5.47993 23.7359 6.06549 24.3214C6.65104 24.9071 7.59348 24.9071 9.47836 24.9071H9.61464C10.3534 24.9071 10.7228 24.9071 11.0593 25.0319C11.1061 25.0492 11.1522 25.0683 11.1975 25.0891C11.5237 25.2388 11.7849 25.4999 12.3073 26.0223C13.5096 27.2247 14.1109 27.8259 14.8506 27.8813C14.95 27.8888 15.0499 27.8888 15.1494 27.8813C15.8891 27.8259 16.4903 27.2247 17.6926 26.0223C18.2151 25.4999 18.4763 25.2388 18.8025 25.0891C18.8479 25.0683 18.8939 25.0492 18.9406 25.0319C19.2771 24.9071 19.6466 24.9071 20.3854 24.9071H20.5216C22.4065 24.9071 23.349 24.9071 23.9345 24.3214C24.5201 23.7359 24.5201 22.7934 24.5201 20.9086V20.7723C24.5201 20.0336 24.5201 19.6641 24.645 19.3276C24.6623 19.2808 24.6814 19.2348 24.7021 19.1894C24.8519 18.8632 25.113 18.6021 25.6354 18.0796C26.8378 16.8772 27.439 16.2761 27.4944 15.5363C27.5019 15.4368 27.5019 15.3369 27.4944 15.2376C27.439 14.4978 26.8378 13.8966 25.6354 12.6942C25.113 12.1718 24.8519 11.9106 24.7021 11.5844C24.6814 11.5391 24.6623 11.493 24.645 11.4463C24.5201 11.1097 24.5201 10.7403 24.5201 10.0016V9.8653C24.5201 7.98041 24.5201 7.03797 23.9345 6.45242C23.349 5.86686 22.4065 5.86686 20.5216 5.86686H20.3854Z" stroke="white" stroke-width="2.5"/>
<path d="M19.375 15.3869C19.375 17.8032 17.4162 19.7619 15 19.7619C12.5838 19.7619 10.625 17.8032 10.625 15.3869C10.625 12.9707 12.5838 11.0119 15 11.0119C17.4162 11.0119 19.375 12.9707 19.375 15.3869Z" stroke="white" stroke-width="2.5"/>
</svg>
