<svg width="26" height="26" viewBox="0 0 26 26" fill="none" xmlns="http://www.w3.org/2000/svg">
<path d="M22.9418 12.0052C23.2585 12.4493 23.4168 12.6714 23.4168 13C23.4168 13.3287 23.2585 13.5508 22.9418 13.9948C21.5188 15.9902 17.8847 20.2917 13.0002 20.2917C8.11556 20.2917 4.48152 15.9902 3.05854 13.9948C2.74184 13.5508 2.5835 13.3287 2.5835 13C2.5835 12.6714 2.74184 12.4493 3.05854 12.0052C4.48152 10.0099 8.11556 5.70837 13.0002 5.70837C17.8847 5.70837 21.5188 10.0099 22.9418 12.0052Z" stroke="#FEFEFE" stroke-width="1.5625"/>
<path d="M16.125 13C16.125 11.2741 14.7259 9.875 13 9.875C11.2741 9.875 9.875 11.2741 9.875 13C9.875 14.7259 11.2741 16.125 13 16.125C14.7259 16.125 16.125 14.7259 16.125 13Z" stroke="#FEFEFE" stroke-width="1.5625"/>
</svg>
